PathFileType	4	(X/Y/Z)	C:/Users/opensim2020/Desktop/walking_exp_matlab/subject03_walking14_straight_01.trc	
DataRate	CameraRate	NumFrames	NumMarkers	Units	OrigDataRate	OrigDataStartFrame	OrigNumFrames	
100.00	100.00	8	47	mm	100.00	527	205	
Frame#	Time	LFHD			RFHD			LBHD			RBHD			C7			T10			CLAV			STRN			RBAK			LSHO			LUPA			LELB			LFRM			LWRA			LWRB			LFIN			RSHO			RUPA			RELB			RFRM			RWRA			RWRB			RFIN			LASI			RASI			LPSI			RPSI			LTHI			LKNE			LTIB			LANK			LHEE			LTOE			RTHI			RKNE			RTIB			RANK			RHEE			RTOE			*39			*40			*41			*42			*43			*44			*45			*46			
		X1	Y1	Z1	X2	Y2	Z2	X3	Y3	Z3	X4	Y4	Z4	X5	Y5	Z5	X6	Y6	Z6	X7	Y7	Z7	X8	Y8	Z8	X9	Y9	Z9	X10	Y10	Z10	X11	Y11	Z11	X12	Y12	Z12	X13	Y13	Z13	X14	Y14	Z14	X15	Y15	Z15	X16	Y16	Z16	X17	Y17	Z17	X18	Y18	Z18	X19	Y19	Z19	X20	Y20	Z20	X21	Y21	Z21	X22	Y22	Z22	X23	Y23	Z23	X24	Y24	Z24	X25	Y25	Z25	X26	Y26	Z26	X27	Y27	Z27	X28	Y28	Z28	X29	Y29	Z29	X30	Y30	Z30	X31	Y31	Z31	X32	Y32	Z32	X33	Y33	Z33	X34	Y34	Z34	X35	Y35	Z35	X36	Y36	Z36	X37	Y37	Z37	X38	Y38	Z38	X39	Y39	Z39	X40	Y40	Z40	X41	Y41	Z41	X42	Y42	Z42	X43	Y43	Z43	X44	Y44	Z44	X45	Y45	Z45	X46	Y46	Z46	X47	Y47	Z47	

52	0.510	1387.27368	-719.88818	1609.58337	1520.60559	-723.53418	1611.07300	1388.24377	-842.32745	1551.39429	1519.26172	-840.78558	1552.96191	1445.96204	-862.57709	1397.06543	1451.79675	-905.68488	1089.16016	1441.05798	-741.03644	1320.51099	1436.08459	-701.24146	1152.55542	1548.12244	-912.52802	1225.82910	1286.44836	-795.00067	1357.96912	1217.88110	-828.51434	1161.71460	1202.56860	-835.58972	1039.44080	1194.32007	-838.70709	908.62030	1215.01221	-851.11639	787.18842	1164.86206	-872.18982	802.30377	1171.21814	-884.24603	716.58990	1601.11584	-777.79321	1343.12744	1679.06689	-731.71405	1131.76050	1693.24231	-687.34216	1028.36145	1695.24634	-630.80353	903.52094	1657.16370	-577.37909	821.32983	1703.42993	-600.65833	807.78442	1691.46716	-555.96582	749.54205	1333.81348	-749.81287	923.06635	1569.14197	-752.08459	916.24329	1376.69910	-913.44037	940.54413	1526.10779	-911.63574	952.55823	1274.30762	-723.93463	631.52130	1317.67761	-646.00989	477.54108	1304.86731	-631.30640	281.88724	1334.63428	-582.28021	75.27204	1370.37732	-613.24426	30.16657	1361.32874	-431.61682	77.34242	1614.43127	-860.95990	634.96216	1584.55347	-897.36395	457.48206	1597.89429	-1006.77252	296.93698	1562.64246	-1119.22607	106.86141	1519.12708	-1176.68250	89.85280	1535.02209	-996.31519	36.39611																								 
53	0.520	1386.03894	-708.18512	1609.60291	1519.39722	-712.30554	1610.60876	1386.51624	-830.75635	1551.39258	1517.55103	-829.48120	1552.47729	1443.07141	-850.51392	1396.29639	1450.99731	-892.61145	1088.28528	1439.12256	-729.32367	1320.41638	1434.70496	-688.62067	1152.69531	1545.72314	-900.76410	1225.07434	1284.27124	-782.38202	1357.46436	1215.79321	-816.89026	1161.24976	1200.40527	-825.91241	1039.26392	1192.44348	-830.49445	908.25336	1213.83972	-845.19977	787.29999	1163.31018	-864.43604	801.91089	1171.24854	-882.06403	716.54822	1599.28894	-767.03003	1343.41028	1677.67603	-721.30060	1132.10876	1692.09290	-676.66821	1028.82910	1694.33423	-619.81903	904.17261	1656.50891	-565.82916	822.18970	1702.53955	-589.37921	808.51947	1690.78784	-544.28967	750.63562	1332.94910	-735.55878	923.29755	1568.39478	-738.34680	915.52448	1376.10925	-899.68097	940.59613	1525.47351	-897.82715	952.32428	1274.74084	-708.93048	632.21771	1316.98804	-634.12653	476.97903	1304.23987	-622.23016	280.18491	1334.24866	-576.02417	73.02913	1368.79248	-609.16077	30.77479	1361.71606	-425.50659	71.81483	1613.78699	-848.12427	634.51599	1584.57227	-885.07391	457.07132	1597.93860	-998.27527	298.61914	1563.07935	-1115.78918	111.86567	1519.49854	-1173.58777	96.79146	1535.41309	-995.66559	36.44785	1436.70020	-797.79834	1659.36230																					 
54	0.530	1384.75000	-696.53436	1609.87146	1518.21985	-700.95093	1610.40747	1384.72229	-818.99158	1551.59705	1515.83691	-818.19678	1552.22070	1440.28809	-839.03192	1395.94714	1449.83325	-879.17877	1087.51843	1437.37280	-717.15167	1320.74866	1433.48059	-675.59656	1153.22400	1543.04346	-888.84589	1224.48853	1282.11731	-769.74298	1357.16187	1213.31726	-805.07001	1161.18201	1197.92639	-815.12732	1039.22937	1190.77954	-821.46979	908.13434	1214.60852	-839.20593	787.17169	1161.17456	-855.67603	802.02124	1171.28210	-877.68451	716.72479	1597.39771	-756.39899	1344.01868	1676.26733	-711.12207	1132.65466	1690.85718	-666.44165	1029.49915	1693.37488	-609.31427	904.92126	1655.78772	-554.78827	823.21832	1701.63635	-578.59662	809.35004	1689.96509	-533.09119	751.65802	1332.13525	-721.73181	923.44958	1567.51660	-724.05597	915.02942	1375.26025	-885.72351	940.92365	1524.77393	-883.81342	952.27460	1274.93335	-694.09454	632.99316	1316.13147	-622.74164	476.30450	1304.54211	-614.54419	278.53275	1334.53503	-572.20245	71.21587	1370.14673	-608.13666	32.12985	1361.04236	-421.48969	59.04037	1613.07080	-834.54865	634.00378	1584.47351	-871.83081	456.51929	1597.91895	-988.99567	300.42831	1563.41650	-1111.60925	117.26540	1519.79663	-1169.71948	104.45109	1535.57629	-995.05750	36.23892	1434.97656	-786.22272	1658.88489																					 
55	0.540	1383.53455	-684.70300	1610.65137	1517.07422	-689.59613	1610.68274	1382.94788	-807.22070	1552.29712	1513.97510	-806.72272	1552.39624	1437.37573	-827.48035	1395.92505	1448.59729	-865.73370	1087.25818	1435.35132	-705.19611	1321.49670	1432.16321	-662.75354	1154.11572	1540.13306	-876.90112	1224.31775	1279.87537	-756.97650	1357.20520	1210.71960	-793.40613	1161.39795	1195.22595	-804.48462	1039.34509	1188.74170	-811.35852	908.22577	1212.13770	-830.67084	787.55353	1159.17932	-845.90472	801.97144	1172.02356	-873.05176	716.85797	1595.34595	-746.05304	1345.03772	1674.84204	-701.08807	1133.38525	1689.57690	-656.80719	1030.13367	1692.39111	-599.35950	905.71509	1655.03992	-544.19519	824.38776	1700.61316	-568.51355	810.14075	1689.24902	-522.51312	752.72119	1331.29993	-707.74451	924.12555	1566.44226	-709.59747	914.83289	1374.25220	-871.51086	941.70038	1524.13550	-869.15619	952.13995	1274.98108	-680.07806	634.09137	1315.01807	-611.20898	476.06311	1305.27136	-607.34985	277.69839	1334.00317	-570.25421	70.17297	1370.48169	-607.68054	33.16828	1362.17712	-420.09653	48.15073	1612.17480	-820.17529	633.42603	1584.11804	-857.43994	455.79227	1597.72546	-978.79425	302.55630	1563.97668	-1106.60986	123.61430	1520.03833	-1164.83069	112.91920	1535.70557	-993.80609	36.58298	1433.73340	-774.73669	1659.43433																					 
56	0.550	1382.30566	-672.80267	1611.85132	1515.82458	-678.13031	1611.34570	1381.12134	-795.27563	1553.54956	1512.32214	-795.39307	1553.19983	1434.49634	-815.79004	1396.50549	1447.34570	-852.17230	1087.43604	1433.37720	-693.20264	1322.59448	1430.83936	-649.76361	1155.44958	1537.30139	-864.75861	1224.34680	1277.62622	-744.16382	1357.62671	1208.02954	-781.29065	1162.12939	1192.78357	-792.54041	1039.79773	1186.74719	-800.02185	908.72803	1210.42932	-821.03278	788.38934	1157.12585	-835.31140	802.39514	1170.74768	-864.53467	718.07391	1593.45044	-735.11420	1346.32483	1673.35583	-691.38177	1134.43848	1688.37683	-647.48541	1030.96082	1691.39465	-589.90399	906.61700	1654.37061	-534.42456	825.47473	1699.58789	-559.10992	811.09259	1688.43652	-512.77026	753.91644	1330.00476	-692.72888	925.25452	1565.24829	-694.99329	914.95306	1373.32324	-857.14502	943.00604	1523.55029	-854.77057	952.63434	1274.47839	-667.00470	635.73541	1313.45862	-599.65247	476.55121	1304.16296	-600.23407	277.88501	1333.54761	-566.92194	69.83947	1369.36670	-606.19635	34.32781	1364.07324	-417.03302	43.80604	1611.17920	-804.90564	632.83344	1583.69360	-841.54639	455.06473	1597.33801	-967.35370	304.95251	1564.03503	-1100.51123	130.48824	1519.69482	-1158.55273	122.31790	1535.75952	-992.99750	36.49080	1432.15356	-762.76202	1660.44543																					 
57	0.560	1381.08789	-660.85645	1613.32532	1514.61780	-666.54810	1612.30530	1379.26318	-783.26001	1555.18799	1510.48389	-783.87189	1554.32520	1431.70276	-803.72076	1397.66479	1446.06396	-838.69391	1088.15564	1431.44861	-681.16553	1324.09680	1429.48352	-636.74884	1157.24121	1534.51025	-852.44171	1224.78174	1275.39978	-731.39319	1358.55225	1205.57959	-768.44019	1163.03699	1190.46851	-780.26788	1041.03394	1184.75183	-788.32501	909.52191	1209.62402	-810.09680	789.68585	1154.94604	-823.51892	803.28619	1169.44360	-855.35986	719.35638	1591.49561	-724.01074	1348.03455	1671.90198	-681.80652	1135.74829	1687.22925	-638.49573	1032.05090	1690.40588	-581.01868	907.69312	1653.66895	-524.99933	826.77399	1698.59375	-550.33557	812.20105	1687.56287	-503.65778	755.04303	1329.14758	-678.70294	926.53760	1563.99170	-680.55023	915.49677	1372.53271	-843.94812	945.38037	1523.10400	-840.50116	953.57910	1273.12097	-655.38641	637.37982	1312.48804	-588.43866	477.65671	1303.51733	-592.70154	278.57639	1333.54980	-563.75037	70.01349	1369.24976	-604.10028	35.94372	1362.48206	-413.90524	42.05651	1610.05640	-788.77148	632.26190	1583.29358	-824.03046	454.21786	1596.54065	-954.80023	307.76639	1563.43872	-1092.99426	137.89420	1518.37915	-1150.53333	132.59373	1535.44336	-991.89728	36.32261																								 
58	0.570	1380.54871	-648.65131	1615.01611	1513.43005	-654.95856	1613.54346	1377.39075	-771.14758	1557.18640	1508.56531	-772.33472	1555.71509	1429.08081	-791.76422	1398.93506	1444.76587	-825.54907	1089.31213	1429.52710	-669.24561	1326.05359	1427.98242	-623.89362	1159.22437	1532.04919	-840.14752	1225.80090	1273.31799	-718.68024	1359.95581	1203.35254	-754.90509	1164.39343	1188.58044	-766.99121	1042.34998	1182.83911	-775.38800	910.88629	1206.25293	-797.04626	790.85724	1152.66504	-810.76801	804.68188	1167.18372	-843.55731	720.83191	1589.44397	-712.82837	1350.12537	1670.46985	-672.03302	1137.40259	1686.14954	-629.66052	1033.45129	1689.36841	-572.66919	908.92334	1652.99036	-516.38861	828.20056	1697.48645	-542.33289	813.33624	1686.98840	-495.33084	756.59729	1328.36499	-664.94775	928.14740	1562.21423	-665.87469	916.57147	1372.05762	-829.91486	947.72699	1522.94995	-825.16492	954.18219	1271.44189	-644.64111	639.10132	1311.53650	-577.09521	479.04007	1302.23047	-585.01080	279.55554	1334.10303	-562.96576	70.32965	1369.38538	-603.37079	36.12848	1360.57690	-412.42514	40.81496	1609.06506	-771.89032	631.73938	1582.97156	-804.89868	453.30124	1595.57214	-940.52002	310.79547	1562.11536	-1083.93420	146.06369	1515.99146	-1140.40039	143.89572	1534.60852	-990.64642	36.02431																								 
59	0.580	1379.37708	-636.54498	1616.95898	1512.31824	-643.29474	1614.92859	1375.53479	-759.11536	1559.37073	1506.63501	-760.72736	1557.32568	1426.64636	-779.63434	1400.56677	1443.56091	-812.38531	1090.71411	1427.72168	-657.24396	1328.12439	1426.66846	-610.88910	1161.50122	1529.87012	-827.38446	1226.98450	1271.34363	-706.14386	1361.67651	1201.40674	-741.03687	1165.95886	1186.98755	-752.69055	1043.90491	1180.93188	-761.41760	912.76306	1204.86133	-783.33783	792.57465	1150.48633	-796.77747	806.36658	1165.14844	-830.17627	722.18121	1587.45740	-701.27759	1352.46008	1668.99390	-662.58704	1139.31775	1685.06372	-621.15942	1035.02515	1688.27344	-564.69244	910.31244	1652.17871	-508.15747	829.58691	1696.40405	-534.83679	814.59698	1686.06885	-487.59888	757.78992	1327.56628	-651.39673	930.61121	1560.92932	-652.13568	917.89044	1371.96228	-816.33008	950.21710	1522.84680	-810.97791	955.50000	1270.12695	-634.37531	640.68109	1311.22839	-566.70264	480.45175	1300.89990	-577.95331	280.34412	1334.56458	-562.18665	70.47075	1369.51831	-603.17926	36.57399	1361.42554	-411.56470	39.86747	1607.95813	-754.26160	631.23224	1582.92676	-784.16162	452.34958	1594.44897	-924.55951	313.95685	1560.10168	-1072.70520	154.49365	1512.55188	-1127.64905	155.68700	1533.83643	-988.99353	36.27553	1428.91699	-726.64404	1666.02380																					 
